<svg t="1688375641466" class="icon" viewBox="0 0 1026 1024" version="1.1" xmlns="http://www.w3.org/2000/svg" p-id="970" width="200" height="200"><path d="M47.104 258.048h501.76c26.624 0 47.104-20.48 47.104-47.104s-20.48-47.104-47.104-47.104h-501.76C20.48 162.816 0 184.32 0 209.92s20.48 48.128 47.104 48.128z m0 239.616h501.76c26.624 0 47.104-20.48 47.104-47.104s-20.48-47.104-47.104-47.104h-501.76C20.48 403.456 0 423.936 0 450.56s20.48 47.104 47.104 47.104z m240.64 131.072H47.104C20.48 628.736 0 649.216 0 675.84c0 26.624 20.48 47.104 47.104 47.104h242.688c26.624 0 47.104-20.48 47.104-47.104-2.048-26.624-22.528-47.104-49.152-47.104z m588.8-384c-33.792-17.408-80.896-44.032-98.304-80.896 0-18.432-17.408-35.84-35.84-35.84S706.56 145.408 706.56 163.84v468.992c-37.888-18.432-106.496-13.312-160.768 17.408-82.944 45.056-118.784 132.096-80.896 193.536 35.84 60.416 134.144 71.68 216.064 26.624 58.368-31.744 96.256-87.04 98.304-138.24V325.632c118.784 0 189.44 47.104 164.864 164.864-6.144 20.48-11.264 44.032-20.48 62.464-4.096 7.168-4.096 15.36 2.048 20.48 6.144 6.144 17.408 6.144 26.624-4.096 45.056-44.032 71.68-102.4 73.728-162.816-2.048-80.896-81.92-130.048-149.504-161.792z" fill="#fff" p-id="971"></path></svg>